<svg xmlns="http://www.w3.org/2000/svg" xmlns:xlink="http://www.w3.org/1999/xlink"><symbol id="android-header" viewBox="0 0 43 47"><path fill="#A4C639" d="M34.886 14.062H8.114v19.133c-.011.913.332 1.795.96 2.468a3.697 3.697 0 0 0 2.422 1.159v7.453c.044.737.374 1.43.922 1.936a2.986 2.986 0 0 0 2.026.789c.753 0 1.478-.282 2.026-.789.548-.506.878-1.199.922-1.936v-7.433h8.236v7.433c.045.737.375 1.43.922 1.936a2.985 2.985 0 0 0 2.026.789c.754 0 1.478-.282 2.026-.789.548-.506.878-1.199.922-1.936v-7.453a3.707 3.707 0 0 0 2.426-1.158c.63-.673.975-1.555.967-2.468V14.402l-.03-.34ZM2.953 15.745c.78 0 1.53.304 2.081.845.552.54.862 1.275.862 2.04v12.402c.001.38-.074.756-.22 1.107a2.88 2.88 0 0 1-.638.94 2.947 2.947 0 0 1-.956.627 2.995 2.995 0 0 1-3.217-.627A2.866 2.866 0 0 1 0 31.032V18.63c0-.38.076-.756.225-1.107.149-.35.366-.669.64-.937.275-.268.6-.48.959-.625a2.995 2.995 0 0 1 1.13-.216ZM40.057 15.745c.78 0 1.53.304 2.081.845.552.54.862 1.275.862 2.04v12.402c.001.38-.074.756-.221 1.107-.147.351-.364.67-.637.94a2.947 2.947 0 0 1-.956.627 2.994 2.994 0 0 1-3.217-.627 2.867 2.867 0 0 1-.865-2.047V18.63c0-.38.076-.756.225-1.107.148-.35.366-.669.64-.937.275-.268.6-.48.959-.625a2.995 2.995 0 0 1 1.129-.216ZM8.175 12.058h26.568a10.404 10.404 0 0 0-3.26-7.293L34.049.498a.307.307 0 0 0-.122-.461.322.322 0 0 0-.42.11l-2.42 4.157A16.708 16.708 0 0 0 21.458.898a16.977 16.977 0 0 0-9.575 3.406L9.504.187a.325.325 0 0 0-.184-.16.333.333 0 0 0-.246.01.315.315 0 0 0-.112.42l2.493 4.238a10.443 10.443 0 0 0-3.28 7.363Zm17.699-5.21c0-.398.161-.78.449-1.062.287-.281.677-.44 1.083-.44.407 0 .797.159 1.084.44.288.282.45.664.45 1.063 0 .398-.162.78-.45 1.062-.287.282-.677.44-1.084.44-.406 0-.796-.158-1.083-.44a1.488 1.488 0 0 1-.45-1.062Zm-11.384 0c0-.398.162-.78.449-1.062.287-.281.677-.44 1.084-.44.406 0 .796.159 1.084.44.287.282.449.664.449 1.063 0 .398-.162.78-.45 1.062-.287.282-.677.44-1.083.44-.407 0-.797-.158-1.084-.44a1.488 1.488 0 0 1-.449-1.062Z"/></symbol><symbol id="apple-header" viewBox="0 0 47 56"><path fill="#fff" d="M39.245 29.74a12.09 12.09 0 0 0 2.127 6.787A12.668 12.668 0 0 0 47 41.063a29.794 29.794 0 0 1-4 7.96c-2.401 3.413-4.905 6.816-8.844 6.904-3.938.09-5.088-2.219-9.526-2.219-4.437 0-5.8 2.15-9.465 2.288-3.663.139-6.686-3.718-9.088-7.111-4.956-6.905-8.752-19.639-3.664-28.2a13.925 13.925 0 0 1 5.024-5.037 14.489 14.489 0 0 1 6.935-1.977c3.724-.069 7.246 2.427 9.526 2.427 2.28 0 6.564-3.009 11.062-2.565 2.084.073 4.121.613 5.954 1.576a13.387 13.387 0 0 1 4.61 3.977c-.275.168-6.31 3.571-6.249 10.653h-.03ZM31.978 8.936C34.16 6.46 35.238 3.247 34.981 0c-3.305.302-6.364 1.82-8.55 4.241-1.862 2.092-3.5 5.445-3.053 8.66 3.247.247 6.555-1.597 8.57-3.945"/></symbol><symbol id="checked-form" viewBox="0 0 22 16">
<path d="M21.7001 0.284331C21.5105 0.102082 21.2557 0 20.9903 0C20.7249 0 20.47 0.102082 20.2805 0.284331L6.70324 13.6028L1.73472 8.72901C1.64045 8.63578 1.52831 8.56178 1.40474 8.51128C1.28118 8.46079 1.14865 8.43479 1.01479 8.43479C0.88093 8.43479 0.748397 8.46079 0.624833 8.51128C0.50127 8.56178 0.389122 8.63578 0.294859 8.72901C0.106004 8.91537 0 9.16747 0 9.43024C0 9.69302 0.106004 9.94512 0.294859 10.1315L5.98331 15.7115C6.07806 15.8037 6.19042 15.8767 6.31396 15.9262C6.4375 15.9756 6.56979 16.0007 6.70324 16C6.96925 15.9989 7.22416 15.8953 7.41303 15.7115L21.7001 1.69675C21.7951 1.60428 21.8705 1.49427 21.922 1.37306C21.9735 1.25186 22 1.12185 22 0.990541C22 0.859234 21.9735 0.729226 21.922 0.608017C21.8705 0.486809 21.7951 0.376798 21.7001 0.284331Z" fill="#D22856"/>
</symbol><symbol id="contrast-desktop" viewBox="0 0 32 32"><path fill="#D22856" d="M16 4a12 12 0 1 1 0 24 12 12 0 0 1 0-24Zm0-4a16 16 0 1 0 0 32 16 16 0 0 0 0-32Z"/><path fill="#D22856" d="M16 24.29a8.52 8.52 0 0 0 0-17"/></symbol><symbol id="contrast-mobile" viewBox="0 0 32 32"><g fill="#283645" opacity=".3"><path d="M16 4a12 12 0 1 1 0 24 12 12 0 0 1 0-24Zm0-4a16 16 0 1 0 0 32 16 16 0 0 0 0-32Z"/><path d="M16 24.29a8.52 8.52 0 0 0 0-17"/></g></symbol><symbol id="contrast-table" viewBox="0 0 16 16"><path fill="#D22856" d="M8 2a6 6 0 1 1 0 12A6 6 0 0 1 8 2Zm0-2a8 8 0 1 0 0 16A8 8 0 0 0 8 0Z"/><path fill="#D22856" d="M8 12.145a4.26 4.26 0 0 0 0-8.5"/></symbol><symbol id="crop-desktop" viewBox="0 0 44 44"><path fill="#D22856" d="M32 28h4V12a4 4 0 0 0-4-4H16v4h16v16Zm-20 4V0H8v8H0v4h8v20a4 4 0 0 0 4 4h20v8h4v-8h8v-4H12Z"/></symbol><symbol id="crop-table" viewBox="0 0 22 22"><path fill="#D22856" d="M16 14h2V6a2 2 0 0 0-2-2H8v2h8v8ZM6 16V0H4v4H0v2h4v10a2 2 0 0 0 2 2h10v4h2v-4h4v-2H6Z"/></symbol><symbol id="facebook_footer" viewBox="0 0 9 18"><path fill="#D22856" d="M6.509 3.193H9V0H6.02C2.762.171 1.6 2.271 2.077 5.816H0v3.336h2.076V18h3.945V9.152h2.958V5.816H6.01c-.02-.998-.041-2.29.499-2.623Z"/></symbol><symbol id="favorite" viewBox="0 0 13 12">
<path d="M6.46867 12C6.3589 12.0014 6.25012 11.9798 6.14988 11.9367C6.04963 11.8935 5.96033 11.8298 5.88815 11.75C1.95926 7.42 1.03665 6.44 0.860416 6.17C0.307088 5.49497 0.00416162 4.66056 0 3.8C0.00441359 3.07425 0.223059 2.36473 0.63034 1.7545C1.03762 1.14428 1.61668 0.658598 2.29973 0.354328C2.98278 0.0500576 3.74155 -0.0602132 4.48721 0.036425C5.23287 0.133063 5.93456 0.432611 6.51014 0.9C7.22774 0.319491 8.13412 0.00090711 9.07066 0C10.1136 0.00264761 11.1129 0.404172 11.8494 1.11652C12.5859 1.82888 12.9995 2.79391 12.9995 3.8C13.014 4.67715 12.6845 5.5272 12.0769 6.18L7.03883 11.74C6.9678 11.8185 6.88016 11.8814 6.78182 11.9246C6.68348 11.9677 6.5767 11.99 6.46867 11.99V12ZM2.07329 5.28C2.29099 5.54 4.63381 8.12 6.46867 10.14L10.947 5.2C11.3073 4.81798 11.5005 4.3163 11.486 3.8C11.486 3.18205 11.2316 2.5894 10.7786 2.15244C10.3256 1.71548 9.71126 1.47 9.07066 1.47C8.69007 1.47297 8.31512 1.55909 7.97398 1.7219C7.63285 1.8847 7.33439 2.11996 7.10103 2.41C7.02567 2.49603 6.9321 2.56553 6.82661 2.61382C6.72113 2.66211 6.60615 2.68809 6.48941 2.69C6.37337 2.68847 6.25936 2.6605 6.15667 2.60836C6.05397 2.55622 5.96552 2.4814 5.89852 2.39C5.66784 2.10104 5.37087 1.86758 5.03093 1.70796C4.69099 1.54833 4.31732 1.46688 3.93926 1.47C3.48505 1.47534 3.04153 1.6036 2.65919 1.84016C2.27684 2.07673 1.97103 2.41211 1.77658 2.8081C1.58213 3.2041 1.50684 3.64481 1.5593 4.08006C1.61176 4.5153 1.78985 4.9276 2.07329 5.27V5.28Z" fill="#D22856"/>
</symbol><symbol id="fill-desktop" viewBox="0 0 48 43"><path fill="#D22856" d="M33.12 17.88 15.24 0l-2.83 2.83 4.76 4.76L6.88 17.88a3 3 0 0 0 0 4.24l11 11a3 3 0 0 0 4.24 0l11-11a3 3 0 0 0 0-4.24ZM10.41 20 20 10.42 29.59 20H10.41ZM38 23s-4 4.33-4 7a4 4 0 1 0 8 0c0-2.67-4-7-4-7ZM48 40H0v3h48v-3Z"/></symbol><symbol id="fill-mobile" viewBox="0 0 48 43"><g fill="#283645" opacity=".3"><path d="M33.12 17.88 15.24 0l-2.83 2.83 4.76 4.76L6.88 17.88a3 3 0 0 0 0 4.24l11 11a3 3 0 0 0 4.24 0l11-11a3 3 0 0 0 0-4.24ZM10.41 20 20 10.42 29.59 20H10.41ZM38 23s-4 4.33-4 7a4 4 0 1 0 8 0c0-2.67-4-7-4-7ZM48 40H0v3h48v-3Z"/></g></symbol><symbol id="fill-table" viewBox="0 0 24 22"><path fill="#D22856" d="M16.56 9.148 7.62 0 6.205 1.448l2.38 2.435L3.44 9.148c-.28.288-.439.678-.439 1.085 0 .406.158.796.439 1.084l5.5 5.628c.281.288.662.449 1.06.449s.779-.161 1.06-.449l5.5-5.628c.28-.288.439-.678.439-1.084 0-.407-.158-.797-.439-1.085ZM5.205 10.233 10 5.33l4.795 4.902h-9.59ZM19 11.767s-2 2.216-2 3.582c0 .543.21 1.063.586 1.447.375.384.884.6 1.414.6.53 0 1.04-.216 1.414-.6A2.07 2.07 0 0 0 21 15.349c0-1.366-2-3.582-2-3.582ZM24 20.465H0V22h24v-1.535Z"/></symbol><symbol id="footer-logo" viewBox="0 0 147 40"><path fill="#283645" d="M72.193 18.425c0-.333.133-.652.369-.89.237-.238.558-.376.897-.384h7.211c5.113 0 8.477 2.676 8.477 7.06v.06c0 4.798-4.078 7.287-8.899 7.287h-5.494v6.734a1.243 1.243 0 0 1-.332.965 1.286 1.286 0 0 1-.948.41 1.304 1.304 0 0 1-.949-.41 1.26 1.26 0 0 1-.332-.965V18.425Zm8.156 10.861c3.746 0 6.207-1.974 6.207-4.937v-.059c0-3.18-2.42-4.828-6.026-4.828h-5.725v9.785l5.544.04ZM94.019 18.267a1.244 1.244 0 0 1 .332-.965 1.287 1.287 0 0 1 .948-.41 1.304 1.304 0 0 1 .949.41 1.26 1.26 0 0 1 .332.965v20.024a1.245 1.245 0 0 1-.332.966 1.285 1.285 0 0 1-.949.41 1.304 1.304 0 0 1-.948-.41 1.26 1.26 0 0 1-.332-.965V18.267ZM103.199 18.296a1.25 1.25 0 0 1 .38-.867c.236-.23.553-.362.885-.367h.352c.261.005.516.075.743.203.226.127.416.309.552.528l13.751 17.23V18.237c0-.325.131-.636.364-.866a1.259 1.259 0 0 1 1.762 0c.233.23.364.541.364.866v20.094a1.117 1.117 0 0 1-.711 1.082 1.16 1.16 0 0 1-.454.083h-.13a1.739 1.739 0 0 1-.756-.231 1.708 1.708 0 0 1-.57-.54L105.67 21.092v17.24a1.238 1.238 0 0 1-.353.853c-.224.23-.529.366-.853.38a1.257 1.257 0 0 1-.871-.368 1.21 1.21 0 0 1-.354-.865V18.296h-.04ZM128.74 18.267a1.26 1.26 0 0 1 .763-1.268 1.304 1.304 0 0 1 1.466.303 1.25 1.25 0 0 1 .333.965v12.175l12.896-13.004c.264-.27.624-.428 1.004-.445.329.013.64.149.87.38.23.232.361.541.366.864a1.277 1.277 0 0 1-.422.889l-8.035 7.82 8.668 10.427c.226.258.351.588.351.928a1.283 1.283 0 0 1-.41.91 1.322 1.322 0 0 1-.946.354 1.228 1.228 0 0 1-1.004-.572l-8.447-10.358-4.891 4.799v4.838a1.257 1.257 0 0 1-.788 1.159 1.297 1.297 0 0 1-1.39-.273 1.257 1.257 0 0 1-.374-.886V18.267h-.01Z"/><path fill="#D22856" d="M98.94 9.746a3.678 3.678 0 0 1-2.575-1.047 3.554 3.554 0 0 1-1.07-2.528c0 .948-.384 1.858-1.066 2.528a3.668 3.668 0 0 1-2.57 1.047c.964.002 1.89.381 2.57 1.053a3.554 3.554 0 0 1 1.065 2.531c.003-.95.388-1.86 1.07-2.531a3.688 3.688 0 0 1 2.576-1.053ZM43.287 19.067h.733a2.47 2.47 0 0 0-.905-.887 2.524 2.524 0 0 0-1.234-.328c-.418 0-.826-.129-1.166-.368a1.978 1.978 0 0 1-.732-.965c-.724.205-1.427.476-2.1.81h.191c.533 0 1.044.208 1.42.578.377.37.59.873.59 1.396.004.096.004.191 0 .287a8.974 8.974 0 0 1 3.203-.523Z"/><path fill="#D22856" d="m60.733 27.647-5.192-21.08C55.179 4.245 52.929 0 46.903 0c-.4 0-.783.156-1.066.434a1.469 1.469 0 0 0-.44 1.047c0 .393.158.77.44 1.047a1.52 1.52 0 0 0 1.066.434c4.871 0 5.594 3.683 5.665 4.088l4.78 19.452H55.25a11.721 11.721 0 0 0-1.724-4.78 11.946 11.946 0 0 0-3.599-3.633 2.502 2.502 0 0 0-1.116.908c-.274.404-.42.878-.42 1.363.005.086.005.171 0 .257a9.148 9.148 0 0 1 2.922 3.207 8.974 8.974 0 0 1 1.095 4.169 9.042 9.042 0 0 1-.14 1.48 8.849 8.849 0 0 1-3.05 5.393 9.132 9.132 0 0 1-5.885 2.141 9.132 9.132 0 0 1-5.885-2.141 8.849 8.849 0 0 1-3.049-5.392 9.031 9.031 0 0 1-.14-1.481c.015-1.37.341-2.72.954-3.95a2.023 2.023 0 0 1-1.33-.625 1.957 1.957 0 0 1-.538-1.35.694.694 0 0 0-.191-.483 11.566 11.566 0 0 0-1.798 4.936h-1.868a11.782 11.782 0 0 0-3.933-7.54 12.17 12.17 0 0 0-8.05-3.03 12.17 12.17 0 0 0-8.05 3.03 11.782 11.782 0 0 0-3.932 7.54H3.443L8.233 7.05c.061-.405.814-4.088 5.666-4.088.4 0 .783-.156 1.065-.434.282-.277.441-.654.441-1.047 0-.393-.159-.77-.441-1.047A1.52 1.52 0 0 0 13.899 0C7.872 0 5.623 4.246 5.26 6.566L.058 27.647a1.38 1.38 0 0 0 .247 1.263c.14.176.322.316.529.41.207.092.433.135.66.124h4.018c.082.611.21 1.215.382 1.807a.731.731 0 0 0 .1-.355c0-.524.212-1.026.589-1.397.376-.37.887-.578 1.42-.578.162.004.324.024.482.06a8.536 8.536 0 0 1-.07-.988c.002-.497.046-.992.13-1.481a8.848 8.848 0 0 1 3.042-5.414 9.131 9.131 0 0 1 5.897-2.152c2.165 0 4.258.764 5.898 2.152a8.848 8.848 0 0 1 3.041 5.414c.085.49.128.984.131 1.48a8.775 8.775 0 0 1-1.334 4.7 8.984 8.984 0 0 1-3.656 3.298 9.174 9.174 0 0 1-9.503-.858c-.363.31-.826.48-1.306.483a.76.76 0 0 0-.526.22.734.734 0 0 0-.217.521 1.946 1.946 0 0 1-.181.8 12.088 12.088 0 0 0 7.643 2.705 12.174 12.174 0 0 0 8.012-2.951 11.789 11.789 0 0 0 4-7.436h1.829a11.784 11.784 0 0 0 3.944 7.51A12.171 12.171 0 0 0 43.292 40c2.964 0 5.823-1.073 8.033-3.015a11.784 11.784 0 0 0 3.944-7.511h4.018c.232.016.465-.024.678-.117.212-.093.398-.236.541-.417a1.38 1.38 0 0 0 .227-1.293Z"/><path fill="#283645" d="M50.92 15.917a4.577 4.577 0 0 1-1.729-.335 4.516 4.516 0 0 1-1.466-.96 4.43 4.43 0 0 1-.98-1.44 4.37 4.37 0 0 1-.344-1.699 4.406 4.406 0 0 1-1.328 3.136 4.56 4.56 0 0 1-3.192 1.298 4.57 4.57 0 0 1 3.193 1.304 4.416 4.416 0 0 1 1.327 3.14c0-1.18.476-2.31 1.323-3.143a4.56 4.56 0 0 1 3.196-1.301ZM38.074 19.383a2.786 2.786 0 0 1-1.953-.796 2.692 2.692 0 0 1-.809-1.92c0 .719-.29 1.408-.805 1.917a2.786 2.786 0 0 1-1.947.799c.73 0 1.43.285 1.946.792.516.508.806 1.196.806 1.913a2.692 2.692 0 0 1 .813-1.913 2.786 2.786 0 0 1 1.95-.792ZM10.785 33.64a2.786 2.786 0 0 1-1.94-.802 2.692 2.692 0 0 1-.802-1.913c0 .719-.29 1.408-.805 1.917a2.786 2.786 0 0 1-1.947.799c.73.002 1.43.29 1.947.798.515.51.805 1.199.805 1.917 0-.717.288-1.404.802-1.913a2.786 2.786 0 0 1 1.94-.802Z"/></symbol><symbol id="header-logo" viewBox="0 0 147 40"><path fill="#fff" d="M72.193 18.425c0-.333.133-.652.369-.89.237-.238.558-.376.897-.384h7.211c5.113 0 8.477 2.676 8.477 7.06v.06c0 4.798-4.078 7.286-8.899 7.286h-5.494v6.734a1.243 1.243 0 0 1-.332.965 1.286 1.286 0 0 1-.948.41 1.304 1.304 0 0 1-.949-.41 1.26 1.26 0 0 1-.332-.965V18.425Zm8.156 10.861c3.746 0 6.207-1.975 6.207-4.937v-.059c0-3.18-2.42-4.828-6.026-4.828h-5.725v9.785l5.544.04ZM94.019 18.267a1.243 1.243 0 0 1 .332-.965 1.286 1.286 0 0 1 .948-.41 1.304 1.304 0 0 1 .949.41 1.258 1.258 0 0 1 .332.965V38.29a1.245 1.245 0 0 1-.332.965 1.284 1.284 0 0 1-.949.41 1.304 1.304 0 0 1-.948-.41 1.26 1.26 0 0 1-.332-.965V18.267ZM103.199 18.297a1.25 1.25 0 0 1 .38-.868c.236-.23.553-.362.885-.367h.352c.261.005.516.075.743.203.226.127.416.31.552.528l13.751 17.23V18.237c0-.324.131-.636.364-.865a1.259 1.259 0 0 1 1.762 0c.233.23.364.54.364.865v20.094a1.117 1.117 0 0 1-.711 1.082 1.161 1.161 0 0 1-.454.083h-.13a1.739 1.739 0 0 1-.756-.23 1.709 1.709 0 0 1-.57-.54L105.67 21.09v17.24a1.238 1.238 0 0 1-.353.853c-.224.23-.529.366-.853.381a1.257 1.257 0 0 1-.871-.369 1.21 1.21 0 0 1-.354-.865V18.296h-.04ZM128.74 18.267a1.243 1.243 0 0 1 .332-.965 1.287 1.287 0 0 1 .949-.41 1.304 1.304 0 0 1 .948.41 1.247 1.247 0 0 1 .332.965v12.175l12.897-13.005c.264-.269.624-.428 1.004-.444.329.013.64.149.87.38.23.232.361.54.365.864a1.261 1.261 0 0 1-.421.889l-8.036 7.82 8.668 10.427c.227.258.352.587.352.928a1.287 1.287 0 0 1-.847 1.18 1.261 1.261 0 0 1-1.083-.08 1.23 1.23 0 0 1-.43-.409l-8.457-10.357-4.882 4.798v4.839a1.238 1.238 0 0 1-.373.886 1.282 1.282 0 0 1-.902.368 1.288 1.288 0 0 1-.902-.368 1.244 1.244 0 0 1-.374-.886V18.267h-.01Z"/><path fill="#D22856" d="M98.94 9.746a3.678 3.678 0 0 1-2.575-1.047 3.554 3.554 0 0 1-1.07-2.528c0 .948-.384 1.857-1.066 2.528a3.668 3.668 0 0 1-2.57 1.047c.964.002 1.89.381 2.57 1.053a3.554 3.554 0 0 1 1.065 2.53c.003-.949.388-1.86 1.07-2.53a3.688 3.688 0 0 1 2.576-1.053Z"/><path fill="#fff" d="M43.287 19.067h.733a2.47 2.47 0 0 0-.905-.887 2.523 2.523 0 0 0-1.234-.328c-.418 0-.826-.129-1.166-.368a1.978 1.978 0 0 1-.732-.965c-.724.206-1.427.477-2.1.81h.191c.533 0 1.044.208 1.42.578.377.37.59.873.59 1.397.004.095.004.19 0 .286a8.976 8.976 0 0 1 3.203-.523Z"/><path fill="#fff" d="m60.733 27.647-5.192-21.08C55.179 4.245 52.929 0 46.903 0c-.4 0-.783.156-1.066.434a1.469 1.469 0 0 0-.44 1.047c0 .393.158.77.44 1.047a1.52 1.52 0 0 0 1.066.434c4.871 0 5.594 3.683 5.665 4.088l4.78 19.452H55.25a11.721 11.721 0 0 0-1.724-4.78 11.946 11.946 0 0 0-3.599-3.633 2.502 2.502 0 0 0-1.116.908c-.274.404-.42.878-.42 1.363.005.086.005.171 0 .257a9.148 9.148 0 0 1 2.922 3.207 8.974 8.974 0 0 1 1.095 4.169 9.042 9.042 0 0 1-.14 1.48 8.85 8.85 0 0 1-3.05 5.393 9.132 9.132 0 0 1-5.885 2.141 9.132 9.132 0 0 1-5.885-2.141 8.849 8.849 0 0 1-3.049-5.392 9.042 9.042 0 0 1-.14-1.481c.015-1.37.341-2.72.954-3.95a2.023 2.023 0 0 1-1.33-.625 1.957 1.957 0 0 1-.538-1.35.694.694 0 0 0-.191-.483 11.566 11.566 0 0 0-1.798 4.936h-1.868a11.782 11.782 0 0 0-3.933-7.54 12.17 12.17 0 0 0-8.05-3.03 12.17 12.17 0 0 0-8.05 3.03 11.782 11.782 0 0 0-3.932 7.54H3.443L8.233 7.05c.061-.405.814-4.088 5.666-4.088.4 0 .783-.156 1.065-.434.282-.277.441-.654.441-1.047 0-.393-.159-.77-.441-1.047A1.52 1.52 0 0 0 13.899 0C7.872 0 5.623 4.246 5.26 6.566L.058 27.647a1.38 1.38 0 0 0 .247 1.263 1.446 1.446 0 0 0 1.19.534h4.017c.082.611.21 1.215.382 1.807a.731.731 0 0 0 .1-.355c0-.524.212-1.026.589-1.397.376-.37.887-.578 1.42-.578.163.002.325.025.482.069a8.835 8.835 0 0 1-.07-1.037c.002-.496.046-.991.13-1.48a8.848 8.848 0 0 1 3.042-5.414 9.131 9.131 0 0 1 5.897-2.152c2.165 0 4.258.763 5.898 2.152a8.848 8.848 0 0 1 3.041 5.413c.085.49.128.985.131 1.481a8.87 8.87 0 0 1-2.665 6.267 9.18 9.18 0 0 1-6.374 2.62 9.146 9.146 0 0 1-5.454-1.708 2.03 2.03 0 0 1-1.306.483.76.76 0 0 0-.526.22.734.734 0 0 0-.217.521 1.946 1.946 0 0 1-.181.8 12.088 12.088 0 0 0 7.643 2.705 12.174 12.174 0 0 0 8.012-2.951 11.789 11.789 0 0 0 4-7.436h1.829a11.784 11.784 0 0 0 3.944 7.51A12.171 12.171 0 0 0 43.292 40c2.964 0 5.823-1.073 8.033-3.015a11.784 11.784 0 0 0 3.944-7.511h4.018c.232.016.465-.024.678-.117.212-.093.398-.236.541-.417a1.38 1.38 0 0 0 .227-1.293Z"/><path fill="#D22856" d="M50.92 15.917a4.576 4.576 0 0 1-1.729-.335 4.515 4.515 0 0 1-1.466-.96 4.431 4.431 0 0 1-.98-1.44 4.37 4.37 0 0 1-.344-1.699 4.406 4.406 0 0 1-1.328 3.136 4.56 4.56 0 0 1-3.192 1.298 4.57 4.57 0 0 1 3.193 1.304 4.416 4.416 0 0 1 1.327 3.14c0-1.18.476-2.31 1.323-3.143a4.56 4.56 0 0 1 3.196-1.301ZM38.074 19.383a2.786 2.786 0 0 1-1.953-.796 2.692 2.692 0 0 1-.809-1.92c0 .719-.29 1.408-.805 1.917a2.786 2.786 0 0 1-1.947.799c.73 0 1.43.285 1.946.792.516.507.806 1.196.806 1.913a2.693 2.693 0 0 1 .813-1.914 2.786 2.786 0 0 1 1.95-.791ZM10.785 33.64a2.786 2.786 0 0 1-1.94-.802 2.692 2.692 0 0 1-.802-1.913c0 .719-.29 1.408-.805 1.917a2.786 2.786 0 0 1-1.947.799c.73.002 1.43.29 1.947.799.515.508.805 1.198.805 1.916 0-.717.288-1.404.802-1.913a2.786 2.786 0 0 1 1.94-.802Z"/></symbol><symbol id="html academy-footer" viewBox="0 0 27 34"><path fill="#D22856" d="M13.643.016 13.5 0 0 1.407v24.606L13.5 34 27 26.013V1.407L13.643.016Zm11.591 25L13.5 31.956 1.766 25.015V14.93l11.685 6.916.02 1.253-8.017-4.743-.011 1.225 8.046 4.809.02 1.286-8.045-4.758-.01 1.226L13.5 26.95l8.124-4.833V16.91l3.62-2.15-.01 10.256Zm0-11.564-3.22 1.88-1.482.875-7.065-4.187-.011 1.225 6.04 3.573-.053.031-.13.076-.86.492-4.986-2.948-.011 1.225 3.936 2.328-.933.61-.021.012-2.971-1.742-.011 1.225 1.947 1.135-1.988 1.186-11.618-6.872 11.638-6.958 11.8 6.834Zm0-1.225L13.44 5.31 1.766 12.22V2.99L13.5 1.764 25.234 2.99v9.237Z"/></symbol><symbol id="include" viewBox="0 0 31 21"><path fill="#3DC644" d="M30.556.43a1.54 1.54 0 0 0-.499-.318 1.607 1.607 0 0 0-1.179 0 1.54 1.54 0 0 0-.499.318L10.374 17.496 2.578 10.11a1.582 1.582 0 0 0-1.072-.39 1.576 1.576 0 0 0-1.057.425c-.28.266-.442.625-.449 1.001-.007.377.14.74.411 1.016l8.88 8.412c.142.135.31.243.497.316a1.596 1.596 0 0 0 1.67-.316L30.556 2.482c.284-.274.444-.642.444-1.026S30.84.703 30.556.43Z"/></symbol><symbol id="mail-icon" viewBox="0 0 18 13"><path fill="#D22856" d="M14.91 1.68c1.2-.928.91-1.68-.65-1.68H3.73c-1.56 0-1.85.761-.66 1.68l3.75 2.898c.621.45 1.387.696 2.175.696.788 0 1.554-.245 2.175-.696l3.74-2.897Z"/><path fill="#D22856" d="M11.91 6.5 9.7 8.246a1.13 1.13 0 0 1-.26.111l-.1.047c-.109.042-.223.07-.34.083l-.33-.056-.12-.074a1.183 1.183 0 0 1-.24-.13L6.08 6.5l-3.9-2.971C1 2.6 0 3.027 0 4.476v5.859c-.003.347.069.692.21 1.014.14.322.348.615.61.863.263.247.576.444.92.58A3.04 3.04 0 0 0 2.83 13h12.32c.376 0 .748-.07 1.095-.203.347-.134.662-.331.927-.579.265-.247.475-.541.617-.865.142-.323.214-.669.211-1.018v-5.86c0-1.448-1-1.856-2.18-.928L11.91 6.5Z"/></symbol><symbol id="microsoft-header" viewBox="0 0 44 41">
<path d="M20.908 19.5238H0V0H20.908V19.5238Z" fill="#F05423"/>
<path d="M44 19.5238H23.092V0H44V19.5238Z" fill="#84C441"/>
<path d="M20.908 41H0V21.4762H20.908V41Z" fill="#2DABE2"/>
<path d="M44 41H23.092V21.4762H44V41Z" fill="#F9BC15"/>
</symbol><symbol id="phone-icon" viewBox="0 0 20 19">
<path d="M10.0408 0C6.46361 0 2.90684 0.608386 1.58197 1.8155C0.624506 2.9164 0.0701613 4.28212 0.00231714 5.70724C-0.000772379 5.76193 -0.000772379 5.81673 0.00231714 5.87141C0.00231714 6.08143 0.0903626 6.28284 0.247084 6.43135C0.403806 6.57985 0.616367 6.66328 0.838005 6.66328L4.07884 6.4122H4.16037C4.26878 6.41094 4.37587 6.38946 4.47551 6.34898C4.57516 6.3085 4.66541 6.24982 4.74112 6.17628C4.81683 6.10275 4.87651 6.0158 4.91676 5.92041C4.95701 5.82502 4.97703 5.72305 4.97568 5.62033V4.04625C4.97433 3.93131 4.99706 3.81725 5.04255 3.71069C5.08804 3.60412 5.15539 3.50717 5.2407 3.42544C5.326 3.34371 5.42757 3.27882 5.53952 3.23454C5.65148 3.19026 5.77159 3.16746 5.8929 3.16747H14.046C14.2919 3.16747 14.5278 3.26006 14.7017 3.42486C14.8757 3.58966 14.9734 3.81318 14.9734 4.04625V5.60102C14.9733 5.80773 15.0585 6.00627 15.2109 6.15423C15.3632 6.30219 15.5706 6.38784 15.7887 6.39288H15.8804L19.162 6.64396C19.2717 6.64396 19.3804 6.62348 19.4818 6.58369C19.5832 6.54389 19.6753 6.48556 19.7529 6.41203C19.8305 6.3385 19.8921 6.2512 19.9341 6.15513C19.9761 6.05906 19.9977 5.95609 19.9977 5.8521C20.0008 5.79741 20.0008 5.74261 19.9977 5.68793C19.9242 4.27608 19.378 2.92311 18.4384 1.82516C17.1951 0.608386 13.6179 0 10.0408 0ZM10.0408 10.3039C9.7102 10.3039 9.38705 10.3968 9.1122 10.5708C8.83734 10.7449 8.62312 10.9922 8.49662 11.2816C8.37011 11.571 8.33701 11.8894 8.4015 12.1966C8.46599 12.5039 8.62518 12.7861 8.85892 13.0075C9.09267 13.229 9.39048 13.3799 9.7147 13.441C10.0389 13.5021 10.375 13.4707 10.6804 13.3509C10.9858 13.231 11.2468 13.028 11.4305 12.7676C11.6141 12.5071 11.7121 12.2009 11.7121 11.8877C11.7135 11.6793 11.6712 11.4728 11.5877 11.2801C11.5042 11.0874 11.3811 10.9123 11.2256 10.7649C11.0702 10.6176 10.8854 10.501 10.682 10.4219C10.4786 10.3427 10.2606 10.3027 10.0408 10.3039ZM8.78723 6.75985V5.79416C8.78723 5.53804 8.67986 5.29241 8.48874 5.11131C8.29761 4.9302 8.03839 4.82846 7.7681 4.82846C7.49781 4.82846 7.23859 4.9302 7.04747 5.11131C6.85634 5.29241 6.74897 5.53804 6.74897 5.79416V6.75985L1.02145 12.4478C0.818967 12.6306 0.658375 12.8511 0.54967 13.0953C0.440965 13.3395 0.386473 13.6023 0.389587 13.8673V15.4511C0.389579 15.872 0.565344 16.2758 0.878498 16.5744C1.19165 16.8729 1.61675 17.0419 2.06096 17.0445H2.47881V18.0102C2.47881 18.1402 2.50583 18.2689 2.55832 18.389C2.61082 18.5091 2.68777 18.6182 2.78477 18.7101C2.88177 18.802 2.99692 18.8749 3.12366 18.9247C3.2504 18.9744 3.38624 19 3.52342 19C3.6606 19 3.79643 18.9744 3.92317 18.9247C4.04991 18.8749 4.16507 18.802 4.26207 18.7101C4.35907 18.6182 4.43601 18.5091 4.48851 18.389C4.54101 18.2689 4.56803 18.1402 4.56803 18.0102V17.0445H15.4727V18.0102C15.4727 18.2727 15.5828 18.5245 15.7787 18.7101C15.9746 18.8957 16.2403 19 16.5173 19C16.7944 19 17.0601 18.8957 17.256 18.7101C17.4519 18.5245 17.562 18.2727 17.562 18.0102V17.0445H17.9798C18.2001 17.0445 18.4183 17.0032 18.6218 16.923C18.8252 16.8428 19.0099 16.7253 19.1653 16.5772C19.3206 16.4291 19.4435 16.2534 19.5269 16.0601C19.6103 15.8669 19.6525 15.6599 19.6512 15.4511V13.8673C19.6556 13.603 19.6027 13.3406 19.4958 13.0964C19.3888 12.8523 19.2301 12.6315 19.0295 12.4478L13.3835 6.75985V5.79416C13.3835 5.53163 13.2735 5.27987 13.0776 5.09424C12.8817 4.90861 12.616 4.80432 12.3389 4.80432C12.0619 4.80432 11.7962 4.90861 11.6003 5.09424C11.4044 5.27987 11.2943 5.53163 11.2943 5.79416V6.75985H8.78723ZM10.0408 8.69123C10.7019 8.69123 11.3482 8.877 11.8979 9.22505C12.4476 9.57309 12.8761 10.0678 13.1291 10.6466C13.3821 11.2253 13.4483 11.8622 13.3193 12.4766C13.1903 13.0911 12.8719 13.6555 12.4044 14.0984C11.937 14.5414 11.3413 14.8431 10.6929 14.9653C10.0445 15.0875 9.37236 15.0248 8.76155 14.7851C8.15074 14.5453 7.62867 14.1393 7.26137 13.6185C6.89406 13.0976 6.69801 12.4852 6.69801 11.8587C6.69801 11.0186 7.05019 10.213 7.67708 9.61896C8.30397 9.02495 9.15421 8.69123 10.0408 8.69123Z" fill="#D22856"/>
</symbol><symbol id="quotes" viewBox="0 0 79 63">
<path d="M35.1468 6.97257L30.8388 0C28.3886 1.48142 0 12.0588 0 39.1293C0 46.2698 0.341426 63 18.9793 63C30.2162 63 32.9778 52.8473 32.9778 49.5783C32.9778 27.8508 11.5081 35.5838 11.5081 35.5838C11.5081 17.7771 31.3911 9.06631 35.1468 6.97257Z" fill="#EFEFEF"/>
<path d="M79 6.97257L74.7322 0C72.302 1.48142 43.8833 12.0588 43.8833 39.1293C43.8833 46.2698 44.2247 63 62.8726 63C74.0995 63 76.8611 52.8473 76.8611 49.5783C76.8611 27.8508 55.3914 35.5838 55.3914 35.5838C55.3914 17.7771 75.3146 9.06631 79 6.97257Z" fill="#EFEFEF"/>
</symbol><symbol id="reviews_quotes" viewBox="0 0 79 63">
<path d="M35.1468 6.97257L30.8388 0C28.3886 1.48142 0 12.0588 0 39.1293C0 46.2698 0.341426 63 18.9793 63C30.2162 63 32.9778 52.8473 32.9778 49.5783C32.9778 27.8508 11.5081 35.5838 11.5081 35.5838C11.5081 17.7771 31.3911 9.06631 35.1468 6.97257Z" fill="#EFEFEF"/>
<path d="M79 6.97257L74.7322 0C72.302 1.48142 43.8833 12.0588 43.8833 39.1293C43.8833 46.2698 44.2247 63 62.8726 63C74.0995 63 76.8611 52.8473 76.8611 49.5783C76.8611 27.8508 55.3914 35.5838 55.3914 35.5838C55.3914 17.7771 75.3146 9.06631 79 6.97257Z" fill="#EFEFEF"/>
</symbol><symbol id="slider-but" viewBox="0 0 22 41"><path fill="#283645" d="M2.041 20.503 21.748 1.415A.821.821 0 0 0 22 .83a.801.801 0 0 0-.252-.585A.86.86 0 0 0 21.14 0a.882.882 0 0 0-.608.245L.252 19.909a.832.832 0 0 0-.252.59.81.81 0 0 0 .253.59l20.279 19.673a.894.894 0 0 0 .613.238.877.877 0 0 0 .473-.143.838.838 0 0 0 .313-.372.809.809 0 0 0-.183-.902L2.041 20.503Z" opacity=".3"/></symbol><symbol id="twitter_footer" viewBox="0 0 18 14"><path fill="#D22856" d="M11.564.169A3.675 3.675 0 0 1 13.672.14c.688.196 1.291.59 1.723 1.122.71-.21 1.41-.447 2.131-.656a2.03 2.03 0 0 1-.253.917c-.157.284-.38.533-.653.729.253.026.508-.002.747-.081.24-.08.456-.208.633-.376-.099.414-.3.801-.588 1.131-.287.33-.653.594-1.07.772-.247 6.27-3.367 10.467-10.689 10.296H5.15c-.443 0-4.418-.428-5.149-1.75 1.752.245 3.539-.147 4.984-1.095-1.03-.286-2.852-.447-3.161-2.74.388.133.81.163 1.215.085C1.76 7.705.34 7.039.422 4.993c.398.306.905.462 1.421.438C1.102 5.203-.247 2.31.896.825c1.926 1.723 3.964 3.35 7.59 3.512C8.711 2.205 9.69.777 11.563.169Z"/></symbol><symbol id="uninclude" viewBox="0 0 27 27">
<path d="M15.6444 13.5065L26.5531 2.58654C26.6947 2.44667 26.8071 2.28009 26.8838 2.09645C26.9605 1.91281 27 1.71577 27 1.51674C27 1.31772 26.9605 1.12068 26.8838 0.937041C26.8071 0.753403 26.6947 0.58682 26.5531 0.446952C26.268 0.165899 25.8837 0.00834432 25.4834 0.00834432C25.0831 0.00834432 24.6988 0.165899 24.4137 0.446952L13.505 11.3669L2.58626 0.446952C2.44641 0.305366 2.27984 0.192953 2.09622 0.11623C1.9126 0.0395068 1.71558 0 1.51658 0C1.31758 0 1.12056 0.0395068 0.936941 0.11623C0.753322 0.192953 0.586757 0.305366 0.446904 0.446952C0.165881 0.73209 0.00834343 1.11638 0.00834343 1.51674C0.00834343 1.91711 0.165881 2.3014 0.446904 2.58654L11.3657 13.5065L0.446904 24.4164C0.305333 24.5562 0.192932 24.7228 0.116217 24.9064C0.0395025 25.0901 0 25.2871 0 25.4861C0 25.6852 0.0395025 25.8822 0.116217 26.0658C0.192932 26.2495 0.305333 26.4161 0.446904 26.5559C0.730723 26.8394 1.11545 26.9987 1.51658 26.9987C1.91771 26.9987 2.30244 26.8394 2.58626 26.5559L13.505 15.6461L24.4137 26.5559C24.698 26.839 25.0823 26.9985 25.4834 27C25.7826 26.9997 26.075 26.9108 26.3237 26.7444C26.5724 26.5781 26.7662 26.3417 26.8806 26.0653C26.9951 25.7888 27.0251 25.4847 26.9668 25.1912C26.9085 24.8977 26.7645 24.6281 26.5531 24.4164L15.6444 13.5065Z" fill="#F25B26"/>
</symbol><symbol id="youtube_footer" viewBox="0 0 15 13"><path fill="#D22856" d="M1.834 12.809a1.257 1.257 0 0 1-1.285.03 1.097 1.097 0 0 1-.443-.457.97.97 0 0 1-.092-.603V1.221A.97.97 0 0 1 .106.618C.2.429.355.27.549.16a1.256 1.256 0 0 1 1.285.031l12.4 5.502c1.022.445 1.022 1.169 0 1.614l-12.4 5.502Z"/></symbol></svg>